<svg width="806" height="734" viewBox="0 0 806 734" fill="none" xmlns="http://www.w3.org/2000/svg">
<path d="M747.992 265.727C740.589 284.181 729.146 299.404 715.557 313.151C710.658 318.107 710.607 318.138 715.556 322.898C738.635 345.096 754.514 371.162 759.982 403.206C770.494 464.812 733.27 527.181 673.963 546.736C636.909 558.953 601.328 556.34 567.995 535.259C546.349 521.57 530.889 502.042 518.572 479.895C514.687 472.91 510.665 465.935 507.563 458.593C498.601 437.382 482.79 424.213 460.909 418.279C417.785 406.583 376.122 410.242 336.407 431.293C324.4 437.658 314.645 447.195 304.052 455.525C279.258 475.024 253.948 493.697 225.141 507.039C204.006 516.827 182.083 524.138 158.827 526.393C88.6049 533.205 26.1746 492.319 9.73544 424.093C4.28331 401.465 5.07685 378.816 10.3161 356.254C27.038 284.24 60.3083 221.033 110.902 167.001C148.604 126.738 192.097 93.9354 240.304 67.4526C265.399 53.6664 292.639 49.0928 321.046 53.7361C351.525 58.7183 370.991 76.7563 381.751 105.335C392.186 133.052 394.244 161.25 389.369 190.348C387.196 203.321 387.403 216.553 389.707 229.632C393.709 252.351 407.216 267.147 428.097 275.856C444.262 282.597 461.329 285.269 478.58 287.014C513.085 290.505 547.736 290.56 582.359 291.158C586.572 291.23 590.851 292.94 595.721 290.963C593.506 284.732 590.467 278.952 589.225 272.625C587.145 262.026 585.217 251.398 583.176 240.791C582.799 238.836 582.181 236.928 581.687 234.995C579.011 224.531 573.741 219.226 561.529 218.108C511.006 213.482 473.493 175.597 467.433 125.027C464.941 104.23 465.569 83.7318 473.59 64.0376C485.112 35.7469 506.139 17.3634 534.442 7.10414C555.231 -0.431057 576.679 -1.95319 598.392 2.44828C629.925 8.84046 650.746 27.968 662.783 57.3041C670.797 76.8359 673.636 97.4168 674.691 118.29C675.128 126.936 674.98 135.624 674.742 144.283C674.641 147.98 675.902 149.989 679.228 151.581C695.524 159.38 710.927 168.602 724.313 180.905C740.553 195.832 751.916 213.358 753.225 236.054C753.808 246.164 751.654 255.908 747.992 265.727Z" fill="black"/>
<path d="M282.437 654.399C283.557 657.135 283.537 660.065 286.272 661.571C288.546 660.596 288.533 658.326 289.064 656.551C292.832 643.948 296.519 631.32 300.127 618.67C302.207 611.377 303.944 609.958 311.314 610.145C311.981 610.162 312.647 610.199 313.313 610.211C321.29 610.355 321.281 610.356 323.247 617.996C323.359 618.433 323.78 618.789 324.114 619.264C327.27 618.775 329.42 616.539 331.896 614.952C345.737 606.078 360.209 605.142 374.532 612.95C388.306 620.458 395.134 632.765 395.814 648.488C396.157 656.416 395.307 664.145 392.361 671.537C386.337 686.653 373.255 694.755 355.096 694.754C334.984 694.754 320.437 682.726 316.99 663.007C315.994 657.313 315.549 651.522 314.795 645.308C312.305 646.608 311.901 648.766 311.268 650.695C305.089 669.522 298.946 688.361 292.78 707.192C292.158 709.09 291.508 710.985 290.764 712.838C284.07 729.533 275.406 734.913 257.554 733.372C251.637 732.861 245.4 733.211 241.059 727.844C239.903 726.415 238.341 727.022 236.883 727.435C232.236 728.751 227.553 729.951 222.94 731.373C210.26 735.282 197.509 734.012 184.867 731.576C176.311 729.927 169.801 724.705 164.948 717.519C158.521 708.005 160.064 698.416 169.606 691.932C173.432 689.332 174.202 687.428 171.799 683.288C165.973 673.252 166.781 668.707 175.5 661.128C178.317 658.679 178.71 657.071 176.697 653.778C164.507 633.84 176.908 610.079 200.406 608.087C207.085 607.52 213.786 607.643 220.15 609.978C224.389 611.533 226.637 610.823 228.478 606.294C231.695 598.376 237.995 593.705 246.441 591.933C250.679 591.045 252.374 592.919 252.485 596.879C252.508 597.71 252.42 598.543 252.395 599.376C252.1 609.231 252.093 609.329 261.851 610.072C266.464 610.423 268.469 613.207 269.787 617.142C273.912 629.455 278.128 641.738 282.437 654.399ZM234.521 655.914C231.699 658.452 229.225 661.261 225.514 662.85C215.351 667.2 204.722 667.078 194.15 666.168C189.822 665.796 188.035 666.858 186.974 670.752C185.733 675.311 188.166 676.542 191.932 677.447C203.722 680.28 215.767 679.44 227.694 679.988C233.889 680.273 239.493 681.771 244.891 684.464C249.969 686.998 252.385 691.485 252.783 696.914C253.111 701.391 252.923 705.907 250.917 710.136C250.189 711.672 249.788 713.324 251.565 714.606C253.883 716.278 264.66 715.222 266.748 713.032C275.031 704.347 278.057 694.767 273.179 683.001C264.204 661.354 255.769 639.483 246.956 617.768C246.084 615.62 245.39 611.658 241.731 613.39C238.675 614.838 235.666 617.32 237.359 621.723C237.834 622.96 238.285 624.22 238.906 625.384C243.875 634.702 242.206 647.775 234.521 655.914ZM357.721 626.597C346.854 626.638 340.707 630.991 338.345 640.874C336.63 648.049 336.307 655.361 338.205 662.603C340.743 672.288 346.333 676.444 356.328 676.199C365.688 675.969 371.259 671.271 373.289 661.75C374.804 654.642 374.383 647.528 373.121 640.425C371.558 631.637 367.685 627.94 357.721 626.597ZM186.233 713.13C198.434 719.354 210.82 719.615 223.288 714.07C227.026 712.408 230.024 709.809 231.508 705.773C233.828 699.462 232.256 695.677 225.62 694.995C213.867 693.787 201.952 693.687 190.284 695.645C181.446 697.128 179.296 706.123 186.233 713.13ZM211.472 652.981C216.587 650.976 221.32 648.215 221.947 642.253C222.651 635.567 223.58 628.676 215.127 625.019C210.138 622.861 205.172 621.361 200.553 623.912C195.91 626.475 191.256 630.025 193.519 636.921C194.012 638.422 193.594 640.218 193.62 641.877C193.721 648.244 196.877 651.649 203.245 652.274C205.719 652.516 208.195 652.753 211.472 652.981Z" fill="black"/>
<path d="M509.962 671.991C509.892 676.53 509.613 680.706 509.845 684.853C510.054 688.58 508.439 690.443 504.986 691.117C504.499 691.212 504.034 691.419 503.552 691.546C490.788 694.91 489.142 693.659 489.134 680.638C489.12 659.985 489.082 639.331 489.089 618.677C489.091 610.963 490.058 610.143 497.72 610.008C503.896 609.899 509.983 609.647 510.105 617.974C513.193 618.732 514.457 616.839 515.974 615.741C519.081 613.492 522.074 611.06 525.725 609.744C529.672 608.322 533.891 607.811 536.906 611.174C539.78 614.379 542.317 613.753 545.678 612.422C559.871 606.802 574.059 605.573 588.099 613.107C593.984 616.266 598.145 620.683 599.499 627.421C600.273 631.272 599.306 633.541 594.846 633.513C588.542 633.473 582.559 633.946 577.421 628.436C573.199 623.908 567.052 623.412 561.145 626.014C558.307 627.265 555.822 629.111 555.644 632.53C555.458 636.082 558.013 637.999 560.828 639.167C568.205 642.227 575.669 645.084 583.144 647.901C587.379 649.497 591.441 651.362 595.001 654.192C605.049 662.179 605.821 674.642 596.849 683.824C582.427 698.585 551.614 698.829 537.015 684.282C533.335 680.616 531.372 676.154 530.773 670.99C530.445 668.154 531.522 667.074 534.297 666.927C541.306 666.555 547.764 665.919 552.976 672.989C557.534 679.174 568.251 679.755 575.102 675.998C577.793 674.522 579.463 672.526 579.467 669.292C579.47 665.931 577.496 664.036 574.718 662.934C567.603 660.111 560.431 657.433 553.271 654.724C543.063 650.862 534.32 645.605 532.047 633.669C531.452 630.55 528.649 630.348 526.074 630.386C517.766 630.509 511.535 637.2 510.874 647.172C510.334 655.303 510.258 663.466 509.962 671.991Z" fill="black"/>
<path d="M20.5784 686.014C20.5607 690.84 18.3651 692.791 14.0106 692.672C-2.65716 692.214 0.225362 695.262 0.141492 679.306C-0.0256613 647.504 0.0891079 615.701 0.0985229 583.898C0.100476 577.294 0.22115 577.187 6.73407 576.961C8.39788 576.903 10.0636 576.827 11.7272 576.849C16.6083 576.915 19.4853 579.154 20.0407 584.234C20.9672 592.71 20.297 601.203 20.5527 609.684C20.6305 612.266 20.1314 614.971 21.5411 617.281C23.543 617.53 24.5336 616.274 25.6699 615.359C35.4618 607.471 46.3131 605.472 57.8976 610.425C69.7532 615.494 73.5819 625.854 74.777 637.782C76.2581 652.564 75.6977 667.378 75.7467 682.181C75.7816 692.723 68.302 697.06 58.9395 692.032C55.5314 690.201 55.1456 686.837 55.0968 683.396C54.922 671.081 54.7299 658.767 54.5411 646.452C54.5181 644.954 54.5238 643.453 54.4334 641.959C53.9485 633.947 50.6528 629.377 44.2046 627.723C36.4681 625.738 29.1179 628.654 25.2777 635.34C21.9501 641.134 20.9521 647.579 20.7893 654.091C20.5273 664.574 20.6259 675.065 20.5784 686.014Z" fill="black"/>
<path d="M674.816 610.925C678.739 610.941 682.139 611.37 686.447 612.881C679.318 618.909 672.785 624.438 666.245 629.96C663.066 632.645 659.997 635.483 656.652 637.945C653.578 640.208 653.958 642.161 656.023 644.941C666.35 658.841 676.524 672.855 686.733 686.843C687.774 688.269 689.321 689.479 689.05 692.196C681.899 692.907 674.69 693.167 667.512 692.035C664.727 691.595 663.207 689.056 661.668 686.869C655.247 677.747 648.897 668.575 642.383 659.519C641.014 657.615 639.974 654.479 636.956 655.125C633.933 655.772 631.937 658.22 630.63 661.081C629.696 663.128 629.742 665.283 629.753 667.453C629.784 673.781 629.7 680.111 629.834 686.437C629.922 690.574 628.213 692.49 623.975 692.682C609.637 693.331 609.17 692.9 609.096 678.457C608.936 647.322 608.693 616.187 608.522 585.051C608.477 577.011 608.541 577.011 616.556 576.986C629.771 576.945 629.79 576.954 629.81 590.442C629.829 602.932 629.817 615.423 629.832 627.913C629.835 630.21 629.664 632.567 631.651 634.979C638.599 630.898 644.944 626.131 649.941 619.944C656.41 611.935 664.659 609.66 674.816 610.925Z" fill="black"/>
<path d="M161.496 649.355C161.498 662.019 161.352 674.186 161.58 686.345C161.667 690.978 160.302 693.305 155.373 692.738C153.729 692.549 152.035 692.603 150.379 692.741C145.734 693.126 142.215 691.728 140.451 687.053C140.126 686.19 139.272 685.526 138.798 684.938C136.918 684.609 136.097 685.82 135.118 686.659C124.882 695.427 113.427 696.274 101.493 691.181C89.8114 686.195 85.3823 676.223 85.1749 664.225C84.9041 648.567 85.0406 632.9 85.0766 617.237C85.0901 611.366 86.3701 610.136 92.0813 610.04C94.4134 610.001 96.7474 610.011 99.0796 610.05C104.942 610.148 106.338 611.864 106.306 617.562C106.223 632.541 106.271 647.522 106.455 662.5C106.538 669.177 109.244 672.833 114.781 674.746C121.357 677.018 128.246 675.563 132.121 670.766C136.954 664.782 139.696 657.885 140.176 650.17C140.82 639.846 140.417 629.516 140.284 619.187C140.186 611.557 141.721 610.044 149.184 610.03C161.535 610.007 161.526 610.007 161.504 622.36C161.488 631.192 161.497 640.023 161.496 649.355Z" fill="black"/>
<path d="M729.023 666.355C729.043 650.541 729.056 635.227 729.086 619.913C729.099 613.316 730.848 610.832 735.839 610.228C744.403 609.192 747.28 610.879 748.82 617.809C748.922 618.267 749.215 618.682 749.445 619.171C751.771 619.531 752.566 617.505 753.833 616.388C763.474 607.887 774.416 605.78 786.373 610.197C798.372 614.629 803.644 624.065 804.759 636.356C806.284 653.157 805.207 669.984 805.454 686.797C805.519 691.237 803.806 693.37 799.199 692.669C798.384 692.546 797.536 692.631 796.703 692.628C784.198 692.582 784.168 692.489 784.253 680.176C784.325 669.683 784.188 659.188 784.228 648.693C784.241 645.321 783.719 642.09 782.697 638.884C780.068 630.633 777.063 627.98 769.649 627.578C762.247 627.177 756.357 630.774 753.477 637.719C750.285 645.412 750.054 653.634 749.802 661.773C749.534 670.428 749.618 679.099 749.786 687.759C749.857 691.41 748.565 692.964 744.86 692.713C741.875 692.511 738.866 692.663 735.867 692.639C731.382 692.604 729.115 690.368 729.109 685.846C729.099 679.516 729.053 673.185 729.023 666.355Z" fill="black"/>
<path d="M475.77 674.353C475.773 679.185 475.686 683.52 475.806 687.849C475.889 690.828 474.5 692.139 471.662 692.195C469.997 692.228 468.331 692.27 466.665 692.27C456.982 692.265 456.982 692.261 453.779 683.847C452.368 683.657 451.774 684.882 450.963 685.605C440.498 694.942 428.637 696.102 416.003 691.226C406.16 687.427 400.806 679.561 400.285 669.378C399.444 652.933 399.538 636.438 399.369 619.962C399.291 612.376 401.693 610.093 409.167 610.045C420.745 609.971 420.72 609.971 420.701 621.66C420.681 634.158 420.698 646.656 420.733 659.153C420.761 668.589 422.8 672.396 428.889 674.569C436.065 677.131 444.078 674.74 449.105 668.576C453.421 663.283 454.986 657.05 455.059 650.423C455.179 639.426 455.062 628.427 455.092 617.429C455.109 611.369 456.391 610.079 462.413 610.046C476.676 609.968 476.077 609.305 475.998 623.402C475.904 640.215 475.736 657.036 475.77 674.353Z" fill="black"/>
<path d="M692.527 627.552C692.717 623.588 692.898 620.101 693.092 616.614C693.129 615.952 693.119 615.263 693.302 614.636C694.407 610.847 699.103 609.094 706.748 609.562C710.345 609.782 712.741 611.389 713.234 615.176C713.384 616.329 713.557 617.491 713.557 618.649C713.57 641.62 713.507 664.593 713.605 687.564C713.621 691.467 712.13 692.701 708.286 692.751C693.056 692.951 693.265 693.055 692.964 677.936C692.633 661.3 692.211 644.669 692.527 627.552Z" fill="black"/>
<path d="M691.151 586.158C692.103 574.987 701.093 569.926 710.659 574.798C715.484 577.255 715.981 581.681 715.571 586.364C715.148 591.196 711.584 595.344 707.144 596.425C700.171 598.123 692.994 593.701 691.151 586.158Z" fill="black"/>
</svg>
